<svg width="245" height="954" viewBox="0 0 245 954" fill="none" xmlns="http://www.w3.org/2000/svg">
<g id="AppleRemote">
<g id="0">
<rect x="177" y="28" width="40" height="40" rx="20" fill="white" fill-opacity="0.1"/>
</g>
<g id="b">
<rect x="26" y="316" width="87" height="87" rx="43.5" fill="white" fill-opacity="0.1"/>
</g>
<g id="p">
<rect x="26" y="419" width="87" height="87" rx="43.5" fill="white" fill-opacity="0.1"/>
</g>
<g id="m">
<rect x="26" y="522" width="87" height="87" rx="43.5" fill="white" fill-opacity="0.1"/>
</g>
<g id="t">
<rect x="132" y="316" width="87" height="87" rx="43.5" fill="white" fill-opacity="0.1"/>
</g>
<g id="+">
<path d="M132 462.5C132 438.476 151.476 419 175.5 419V419C199.524 419 219 438.476 219 462.5V514H132V462.5Z" fill="white" fill-opacity="0.1"/>
</g>
<g id="-">
<path d="M219 565.5C219 589.524 199.524 609 175.5 609V609C151.476 609 132 589.524 132 565.5L132 514L219 514L219 565.5Z" fill="white" fill-opacity="0.1"/>
</g>
<g id="left">
<path id="left_2" d="M72.8574 230.429C73.9196 232.047 73.7023 234.219 72.3264 235.596L41.451 266.474C41.451 266.474 41.2096 266.692 41.0889 266.812C39.3026 268.213 36.7196 267.899 35.3194 266.112C4.22686 226.445 4.22686 170.651 35.3194 130.984C35.416 130.864 35.5367 130.743 35.6574 130.622C37.2506 129.029 39.8578 129.029 41.4752 130.622L72.3505 161.501C73.7265 162.877 73.9437 165.026 72.8816 166.668C60.1597 186.054 60.1597 211.115 72.8816 230.501L72.8574 230.429Z" fill="white" fill-opacity="0.1"/>
</g>
<g id="enter">
<path id="s" d="M121.5 157.469C144.168 157.469 162.562 175.866 162.562 198.536C162.562 221.206 144.168 239.603 121.5 239.603C98.8323 239.603 80.4375 221.206 80.4375 198.536C80.4375 175.866 98.8323 157.469 121.5 157.469Z" fill="white" fill-opacity="0.1"/>
</g>
<g id="down">
<path id="down_2" d="M53.9315 284.678C93.5938 315.774 149.382 315.774 189.044 284.678C190.831 283.278 191.144 280.694 189.744 278.908C189.648 278.787 189.527 278.666 189.406 278.546L158.531 247.667C157.155 246.291 155.006 246.074 153.365 247.136C133.98 259.859 108.923 259.859 89.5383 247.136C87.9209 246.074 85.7482 246.291 84.3723 247.667L53.4969 278.546C51.9037 280.139 51.9037 282.747 53.4969 284.364C53.6176 284.485 53.7383 284.581 53.859 284.702" fill="white" fill-opacity="0.1"/>
</g>
<g id="up">
<path id="up_2" d="M89.5867 149.888C108.971 137.165 134.029 137.165 153.413 149.888C155.031 150.951 157.203 150.733 158.579 149.357L189.455 118.478C191.048 116.885 191.048 114.278 189.455 112.66C189.334 112.539 189.213 112.443 189.093 112.322C149.43 81.226 93.6422 81.226 53.9799 112.322C52.1935 113.722 51.8797 116.306 53.2798 118.092C53.3764 118.213 53.4971 118.334 53.6178 118.454L84.4931 149.333C85.8691 150.709 88.0176 150.926 89.6591 149.864" fill="white" fill-opacity="0.1"/>
</g>
<g id="right">
<path id="right_2" d="M170.118 166.619C182.84 186.006 182.84 211.066 170.118 230.453C169.056 232.071 169.273 234.244 170.649 235.62L201.525 266.498C203.118 268.092 205.725 268.092 207.343 266.498C207.463 266.378 207.56 266.257 207.681 266.136C238.773 226.47 238.773 170.675 207.681 131.009C206.28 129.222 203.697 128.908 201.911 130.308C201.79 130.405 201.67 130.526 201.549 130.646L170.674 161.525C169.298 162.901 169.08 165.05 170.143 166.692L170.118 166.619Z" fill="white" fill-opacity="0.1"/>
</g>
</g>
</svg>
